<?xml version="1.0" encoding="utf-8"?>
<svg version="1.1" xmlns="http://www.w3.org/2000/svg" xmlns:xlink="http://www.w3.org/1999/xlink" height="10" width="12">
  <defs>
    <path id="path-0" opacity="1" d="M1,8 L11,8 C11.551915024494,8 12,8.448084975506 12,9 C12,9.551915024494 11.551915024494,10 11,10 L1,10 C0.448084975506,10 0,9.551915024494 0,9 C0,8.448084975506 0.448084975506,8 1,8Z"/>
    <path id="path-1" opacity="1" d="M1,0 L11,0 C11.551915024494,0 12,0.448084975506 12,1 C12,1.5519150244939999 11.551915024494,2 11,2 L1,2 C0.448084975506,2 0,1.5519150244939999 0,1 C0,0.448084975506 0.448084975506,0 1,0Z"/>
    <path id="path-2" opacity="1" d="M1,4 L11,4 C11.551915024494,4 12,4.448084975506 12,5 C12,5.551915024494 11.551915024494,6 11,6 L1,6 C0.448084975506,6 0,5.551915024494 0,5 C0,4.448084975506 0.448084975506,4 1,4Z"/>
  </defs>
  <g opacity="1">
    <g opacity="1">
      <use xlink:href="#path-0" fill="rgb(108,86,140)" fill-opacity="1"/>
    </g>
    <g opacity="1">
      <use xlink:href="#path-1" fill="rgb(108,86,140)" fill-opacity="1"/>
    </g>
    <g opacity="1">
      <use xlink:href="#path-2" fill="rgb(108,86,140)" fill-opacity="1"/>
    </g>
  </g>
</svg>