<?xml version="1.0" encoding="utf-8"?>
<svg version="1.1" xmlns="http://www.w3.org/2000/svg" xmlns:xlink="http://www.w3.org/1999/xlink" height="15.019999999999868" width="19.50305522914209">
  <defs>
    <path id="path-0" opacity="1" d="M19.292541749997415,6.99274874999996 C19.112101625016297,6.729898749999962 18.808457758784627,6.571249999999964 18.482501403980024,6.571249999999964 L3.930878421631696,6.571249999999964 C3.542835142102407,6.571249999999964 3.1916559741284,6.794672499999961 3.0393489869131542,7.140132499999957 L0.12902439044348848,13.711382499999893 C0,14.00145624999989 0.031043462362343163,14.333773749999889 0.21051347914463925,14.597562499999883 C0.3909536041257584,14.861351249999881 0.6945974703574269,15.019999999999879 1.0205538251620296,15.019999999999879 L15.572176807510358,15.019999999999879 C15.960220087039646,15.019999999999879 16.311399255013654,14.79657749999988 16.4637062422289,14.451117499999883 L19.374030838698562,7.879867499999949 C19.503055229142053,7.589793749999952 19.47201176677971,7.256537499999956 19.292541749997415,6.99274874999996Z"/>
    <path id="path-1" opacity="1" d="M2.092523384861727,5.21287874999994 C2.257441778661675,4.894642499999944 2.5930992154545103,4.693749999999946 2.9607702228085113,4.693749999999946 L17.512393205156858,4.693749999999946 L17.512393205156858,2.8162499999999677 C17.512393205156858,2.2971212499999734 17.07875484028288,1.8774999999999782 16.542285006333636,1.8774999999999782 L9.035587763839533,1.8774999999999782 L5.808037786354671,0.12109874999999815 C5.662521556531188,0.04130499999999915 5.498573270930063,0 5.331714660732469,0 L1.020553825162065,0 C0.4840839912128228,0 0.050445626338841976,0.4196212499999952 0.050445626338841976,0.9387499999999891 L0.050445626338841976,9.165954999999894 L2.092523384861727,5.21287874999994Z"/>
  </defs>
  <g opacity="1">
    <g>
      <use xlink:href="#path-0" fill="rgb(130,255,232)" fill-opacity="1"/>
    </g>
    <g>
      <use xlink:href="#path-1" fill="rgb(187,255,240)" fill-opacity="1"/>
    </g>
  </g>
</svg>