<svg viewBox="0 0 171.49 161.83" xmlns="http://www.w3.org/2000/svg"><path d="m29.07 32.41h98v98.23h-98z" fill="#defcff"/><path d="m71.25 13-56.86 58.37a27.41 27.41 0 0 0 -7.46 18.74l-.51 39.22c-.19 14.34 9.94 26.09 22.5 26.09h12.65c12.43 0 22.5-11.51 22.5-25.7s10.07-25.7 22.5-25.7 22.5 11.51 22.5 25.7 10.07 25.7 22.5 25.7h11c12.43 0 22.5-11.51 22.5-25.7v-41.45a27.4 27.4 0 0 0 -7.7-19.36l-56.28-56.15c-8.57-8.55-21.38-8.45-29.84.24z" fill="none" stroke="#2161ff" stroke-linecap="round" stroke-linejoin="round" stroke-width="12.83"/></svg>