<?xml version="1.0" encoding="utf-8"?>
<svg version="1.1" xmlns="http://www.w3.org/2000/svg" xmlns:xlink="http://www.w3.org/1999/xlink" height="28.61926143182143" width="28.69381307720255">
  <defs>
    <path id="path-0" opacity="1" d="M8.19438639977087,14.992868941996253 C7.501206730049466,15.649455472953814 6.810080833372804,16.439274202660506 6.651987224488974,16.755522842218618 C6.101130376174011,17.862357577024916 5.8807876368480265,20.05140584930107 7.45403479563556,21.648426240169204 C8.527103936153107,22.738473794973384 10.86934725518833,22.431827973601365 11.860889582155263,21.940523172206056 C13.420916176583237,21.164955456108213 16.776736096517993,16.95361156624361 16.776736096517993,16.95361156624361 C18.16820049536159,15.63078178207673 17.628360784012926,14.056144297878085 16.153166144225455,12.56320442302308 "/>
    <path id="path-1" opacity="1" d="M20.262558232656268,13.630869071159083 C20.986140519470716,13.009489908277326 21.713797356400285,12.25477423322426 21.88648422148877,11.946555344279929 C22.49022332724197,10.868818388143964 22.813025440354536,8.692080714536022 21.320203381420995,7.022315876992038 C20.30111821203832,5.8807876368480265 17.950061183430066,6.06992319820522 16.93648458253054,6.513104750261131 C15.341203149810411,7.208094002348808 11.787074764482282,11.24820865619183 11.787074764482282,11.24820865619183 C10.332812684930786,12.500532284349816 10.795532437515353,14.099790965884907 12.200217400718502,15.664356142082287 "/>
  </defs>
  <g opacity="1">
    <g>
      <use xlink:href="#path-0" fill-opacity="0" stroke="rgb(138,247,255)" stroke-opacity="1" stroke-width="2.5"/>
    </g>
    <g>
      <use xlink:href="#path-1" fill-opacity="0" stroke="rgb(179,253,255)" stroke-opacity="1" stroke-width="2.5"/>
    </g>
  </g>
</svg>